<svg aria-hidden="true" style="position: absolute; width: 0; height: 0; overflow: hidden;" version="1.1" xmlns="http://www.w3.org/2000/svg" xmlns:xlink="http://www.w3.org/1999/xlink">
<defs>
<symbol id="icon-reshot" viewBox="0 0 32 32">
<path d="M7.532 12.828h5c0.242 0 0.438-0.196 0.438-0.438v0-1.28c-0-0.899-0.429-1.698-1.093-2.203l-0.007-0.005c0.406-0.442 0.655-1.034 0.655-1.685 0-1.378-1.117-2.494-2.494-2.494s-2.494 1.117-2.494 2.494c0 0.65 0.249 1.243 0.657 1.687l-0.002-0.002c-0.669 0.511-1.097 1.309-1.097 2.208 0 0 0 0 0 0.001v-0 1.28c0 0.242 0.196 0.438 0.438 0.438v0zM10.033 5.604c0.894 0 1.619 0.725 1.619 1.619s-0.725 1.619-1.619 1.619c-0.894 0-1.619-0.725-1.619-1.619v0c0.001-0.893 0.725-1.617 1.618-1.619h0zM7.97 11.11c0.001-0.704 0.387-1.318 0.958-1.644l0.009-0.005c0.319 0.162 0.696 0.256 1.094 0.256s0.775-0.095 1.108-0.263l-0.014 0.006c0.582 0.329 0.968 0.944 0.969 1.648v0.843h-4.125z"></path>
<path d="M28.163 1.188h-24.327c-0.241 0.001-0.437 0.196-0.437 0.438 0 0 0 0 0 0v0 28.75c0 0.242 0.196 0.438 0.438 0.438v0h24.327c0.242 0 0.438-0.196 0.438-0.438v0-28.75c0 0 0 0 0 0 0-0.242-0.196-0.438-0.438-0.438-0 0-0.001 0-0.001 0h0zM27.726 29.938h-23.451v-27.875h23.45z"></path>
<path d="M6.587 16.438h18.827c0.242 0 0.438-0.196 0.438-0.438s-0.196-0.438-0.438-0.438v0h-18.827c-0.242 0-0.438 0.196-0.438 0.438s0.196 0.438 0.438 0.438v0zM6.587 20.049h18.827c0.242 0 0.438-0.196 0.438-0.438s-0.196-0.438-0.438-0.438v0h-18.827c-0.242 0-0.438 0.196-0.438 0.438s0.196 0.438 0.438 0.438v0zM6.587 27.271h18.827c0.242 0 0.438-0.196 0.438-0.438s-0.196-0.438-0.438-0.438v0h-18.827c-0.242 0-0.438 0.196-0.438 0.438s0.196 0.438 0.438 0.438v0zM6.587 23.66h18.827c0.242 0 0.438-0.196 0.438-0.438s-0.196-0.438-0.438-0.438v0h-18.827c-0.242 0-0.438 0.196-0.438 0.438s0.196 0.438 0.438 0.438v0zM16 5.604h9.413c0.242 0 0.438-0.196 0.438-0.438s-0.196-0.438-0.438-0.438v0h-9.414c-0.242 0-0.438 0.196-0.438 0.438s0.196 0.438 0.438 0.438v0zM16 9.215h9.413c0.242 0 0.438-0.196 0.438-0.438s-0.196-0.438-0.438-0.438v0h-9.414c-0.242 0-0.438 0.196-0.438 0.438s0.196 0.438 0.438 0.438v0zM16 12.826h9.413c0.242 0 0.438-0.196 0.438-0.438s-0.196-0.438-0.438-0.438v0h-9.414c-0.242 0-0.438 0.196-0.438 0.438s0.196 0.438 0.438 0.438v0z"></path>
</symbol>
<symbol id="icon-upwork" viewBox="0 0 32 32">
<path d="M0.64 5.76c-0.353 0-0.64 0.287-0.64 0.64v0 9.034c0 3.943 2.997 7.37 6.934 7.594 3.774 0.214 6.985-2.435 7.656-5.971 0.365 0.493 0.736 0.951 1.11 1.372l-2.259 9.586c-0.044 0.191 0 0.39 0.122 0.544 0.122 0.152 0.307 0.243 0.502 0.243h3.276c0.001 0 0.002 0 0.003 0 0.299 0 0.549-0.206 0.617-0.485l0.001-0.004 1.585-6.688 0.582 0.337c1.386 0.718 2.792 1.080 4.19 1.080 4.603 0 8.273-4.070 7.6-8.8-0.445-3.133-2.854-5.716-5.949-6.383-0.494-0.113-1.062-0.178-1.645-0.178-3.022 0-5.639 1.739-6.902 4.272l-0.020 0.045s-0.165 0.368-0.298 0.735c-1.056-1.821-1.677-3.711-2.001-5.080-0.118-0.499-0.296-1.403-0.317-1.461-0.089-0.252-0.325-0.43-0.603-0.43-0 0-0.001 0-0.001 0h-3.304c-0.353 0-0.64 0.287-0.64 0.64v0 9.152c0 1.504-1.096 2.848-2.592 2.995-0.085 0.009-0.184 0.014-0.285 0.014-1.591 0-2.882-1.289-2.883-2.881v-9.28c0-0.353-0.287-0.64-0.64-0.64v0h-3.2zM24.32 12.16c1.764 0 3.2 1.436 3.2 3.2s-1.436 3.2-3.2 3.2c-1.424 0-2.743-0.859-3.667-1.608l0.567-2.394c0.368-1.39 1.614-2.399 3.097-2.399 0.001 0 0.003 0 0.004 0h-0z"></path>
</symbol>
<symbol id="icon-freelancehunt" viewBox="0 0 32 32">
<path d="M15.994 0c-8.833 0-15.994 7.161-15.994 15.994s7.161 15.994 15.994 15.994c8.833 0 15.994-7.161 15.994-15.994v0c-0.001-8.833-7.161-15.993-15.994-15.994h-0zM15.994 28.111c-6.692 0-12.117-5.425-12.117-12.117s5.425-12.117 12.117-12.117c6.692 0 12.117 5.425 12.117 12.117v0c-0.007 6.689-5.428 12.11-12.116 12.117h-0.001z"></path>
<path d="M14.055 18.331c0.512 0.461 1.193 0.742 1.939 0.742s1.428-0.282 1.942-0.745l-0.003 0.002v-4.647c-0.511-0.462-1.192-0.745-1.939-0.745s-1.428 0.283-1.942 0.747l0.003-0.002v4.647zM15.994 7.77c-0 0-0 0-0.001 0-2.273 0-4.331 0.923-5.82 2.414l-0 0 2.737 2.741c0.789-0.789 1.879-1.277 3.082-1.277s2.294 0.488 3.082 1.277v0l2.741-2.741c-1.488-1.491-3.545-2.414-5.818-2.414-0.002 0-0.004 0-0.006 0h0.002zM19.079 19.099c-0.789 0.789-1.879 1.278-3.082 1.278s-2.294-0.488-3.082-1.278l-0-0-2.737 2.733c1.49 1.491 3.548 2.413 5.822 2.413s4.333-0.922 5.822-2.413l0-0-2.743-2.733zM15.988 32.002c0.007-0.092 0.011-0.199 0.011-0.307 0-1.817-1.179-3.359-2.814-3.902l-0.029-0.008h-0.016c-4.696-1.192-8.253-5.010-9.047-9.762l-0.010-0.071h8.033c-0.3-0.563-0.476-1.23-0.476-1.939s0.176-1.377 0.487-1.962l-0.011 0.023h-8.041c0.954-5.803 5.932-10.176 11.932-10.176 2.317 0 4.481 0.652 6.32 1.782l-0.052-0.030c0.568 0.346 1.255 0.551 1.99 0.551 1.236 0 2.336-0.58 3.044-1.482l0.006-0.008c-2.895-2.901-6.899-4.696-11.321-4.696-8.833 0-15.994 7.161-15.994 15.994 0 8.831 7.157 15.99 15.987 15.994h0z"></path>
</symbol>
<symbol id="icon-tiktok" viewBox="0 0 32 32">
<path d="M28.145 0.060h-24.289c-2.093 0-3.795 1.702-3.795 3.795v24.289c0 2.093 1.702 3.795 3.795 3.795h24.289c2.093 0 3.795-1.702 3.795-3.795v-24.289c0-2.093-1.702-3.795-3.795-3.795zM25.113 13.968c-0.156 0.016-0.338 0.026-0.522 0.026h-0.001c-0 0-0 0-0.001 0-1.982 0-3.726-1.014-4.744-2.551l-0.013-0.021v8.757c0 3.575-2.898 6.472-6.472 6.472s-6.472-2.898-6.472-6.472c0-3.575 2.898-6.472 6.472-6.472v0c0.135 0 0.267 0.012 0.4 0.020v3.19c-0.133-0.016-0.263-0.040-0.4-0.040-1.825 0-3.303 1.479-3.303 3.303s1.479 3.303 3.303 3.303v0c1.825 0 3.436-1.438 3.436-3.262l0.032-14.873h3.048c0.295 2.731 2.488 4.867 5.219 5.073l0.019 0.001v3.545z"></path>
</symbol>
<symbol id="icon-telegram" viewBox="0 0 32 32">
<path d="M32 0l-32 18 10.227 3.787 15.773-14.787-11.997 16.187 0.009 0.003-0.012-0.003v8.813l5.735-6.691 7.267 2.691 4.999-28z"></path>
</symbol>
<symbol id="icon-github" viewBox="0 0 32 32">
<path d="M16 0.661c-8.471 0-15.339 6.868-15.339 15.339 0 7.188 4.949 13.202 11.622 14.866-0.075-0.214-0.118-0.46-0.118-0.717 0-0.010 0-0.020 0-0.030v0.002-2.622h-1.928c-1.049 0-1.983-0.451-2.435-1.29-0.502-0.932-0.589-2.357-1.834-3.229-0.37-0.29-0.088-0.621 0.338-0.576 0.786 0.222 1.438 0.762 2.052 1.562 0.611 0.802 0.899 0.983 2.040 0.983 0.553 0 1.382-0.032 2.162-0.155 0.419-1.065 1.144-2.045 2.030-2.508-5.108-0.525-7.546-3.066-7.546-6.517 0-1.485 0.633-2.922 1.708-4.133-0.353-1.201-0.796-3.652 0.136-4.585 2.298 0 3.688 1.49 4.021 1.893 1.106-0.39 2.381-0.615 3.709-0.615 0.006 0 0.011 0 0.017 0h-0.001c1.324 0 2.587 0.222 3.735 0.617 0.33-0.4 1.72-1.896 4.024-1.896 0.936 0.934 0.487 3.395 0.13 4.594 1.069 1.208 1.697 2.641 1.697 4.124 0 3.447-2.434 5.988-7.534 6.515 1.403 0.732 2.427 2.79 2.427 4.341v3.495c0 0.133-0.030 0.229-0.045 0.342 5.977-2.095 10.271-7.771 10.271-14.463 0-8.471-6.868-15.339-15.339-15.339z"></path>
</symbol>
<symbol id="icon-linkedin" viewBox="0 0 32 32">
<path d="M31.992 32h0.008v-11.738c0-5.741-1.235-10.163-7.947-10.163-3.227 0-5.392 1.77-6.277 3.45h-0.093v-2.914h-6.365v21.363h6.627v-10.578c0-2.786 0.528-5.48 3.978-5.48 3.398 0 3.45 3.179 3.45 5.658v10.402h6.619zM0.528 10.635h6.635v21.365h-6.635v-21.365zM3.843 0c-2.123 0-3.843 1.721-3.843 3.843v0c0 2.12 1.722 3.878 3.843 3.878 2.12 0 3.842-1.757 3.842-3.878s-1.72-3.841-3.841-3.843h-0z"></path>
</symbol>
<symbol id="icon-instagram" viewBox="0 0 32 32">
<path d="M31.968 9.408c-0.074-1.701-0.349-2.869-0.742-3.882-0.424-1.111-1.054-2.059-1.85-2.837l-0.001-0.001c-0.78-0.792-1.724-1.419-2.778-1.827l-0.054-0.018c-1.019-0.394-2.181-0.667-3.882-0.742-1.712-0.082-2.256-0.101-6.602-0.101-4.344 0-4.888 0.019-6.595 0.094-1.699 0.074-2.869 0.349-3.88 0.742-1.112 0.424-2.060 1.054-2.839 1.85l-0.001 0.001c-0.791 0.78-1.418 1.724-1.825 2.778l-0.018 0.054c-0.395 1.019-0.669 2.181-0.744 3.882-0.082 1.712-0.101 2.256-0.101 6.602 0 4.344 0.019 4.888 0.094 6.595 0.075 1.701 0.35 2.869 0.744 3.882 0.426 1.11 1.055 2.057 1.849 2.837l0.001 0.001c0.8 0.813 1.77 1.443 2.832 1.843 1.019 0.395 2.182 0.67 3.882 0.744 1.707 0.075 2.251 0.094 6.595 0.094 4.346 0 4.89-0.019 6.595-0.094 1.701-0.074 2.869-0.349 3.882-0.742 2.157-0.85 3.833-2.526 4.664-4.628l0.019-0.055c0.394-1.019 0.669-2.182 0.744-3.882 0.075-1.707 0.093-2.251 0.093-6.595s-0.006-4.888-0.080-6.595zM29.088 22.474c-0.070 1.563-0.333 2.406-0.55 2.97-0.552 1.399-1.64 2.486-3.004 3.024l-0.036 0.012c-0.56 0.219-1.411 0.482-2.968 0.55-1.688 0.075-2.194 0.094-6.464 0.094-4.269 0-4.782-0.019-6.464-0.094-1.563-0.069-2.406-0.331-2.97-0.55-0.721-0.269-1.334-0.676-1.836-1.192l-0.001-0.001c-0.517-0.503-0.924-1.117-1.184-1.803l-0.011-0.034c-0.218-0.563-0.48-1.413-0.549-2.97-0.075-1.688-0.094-2.195-0.094-6.464 0-4.27 0.019-4.784 0.094-6.464 0.069-1.563 0.331-2.406 0.549-2.97 0.269-0.722 0.678-1.337 1.198-1.837l0.002-0.002c0.504-0.517 1.119-0.923 1.806-1.182l0.034-0.011c0.56-0.219 1.411-0.48 2.968-0.55 1.688-0.074 2.195-0.093 6.464-0.093 4.275 0 4.782 0.019 6.464 0.093 1.563 0.069 2.406 0.331 2.97 0.55 0.693 0.256 1.325 0.662 1.837 1.194 0.531 0.52 0.938 1.144 1.195 1.84 0.218 0.56 0.48 1.411 0.549 2.968 0.075 1.688 0.094 2.194 0.094 6.464 0 4.269-0.019 4.768-0.094 6.458z"></path>
<path d="M16.059 7.782c-4.539 0.002-8.218 3.682-8.219 8.221v0c0.091 4.471 3.737 8.060 8.221 8.060s8.13-3.589 8.221-8.052l0-0.009c-0.001-4.54-3.681-8.22-8.221-8.221h-0zM16.059 21.334c-2.945-0-5.332-2.388-5.332-5.333s2.388-5.333 5.333-5.333c0 0 0.001 0 0.001 0h-0c2.946 0 5.334 2.388 5.334 5.334s-2.388 5.334-5.334 5.334v0zM26.525 7.458c0 1.060-0.86 1.92-1.92 1.92s-1.92-0.86-1.92-1.92v0c0-1.060 0.86-1.92 1.92-1.92s1.92 0.86 1.92 1.92v0z"></path>
</symbol>
<symbol id="icon-discord" viewBox="0 0 32 32">
<path d="M27.107 5.637c-1.908-0.917-4.123-1.638-6.444-2.051l-0.158-0.023c-0.284 0.514-0.617 1.206-0.846 1.756-2.462-0.37-4.9-0.37-7.317 0-0.229-0.55-0.569-1.242-0.856-1.756-2.481 0.437-4.697 1.16-6.763 2.147l0.157-0.067c-4.178 6.314-5.311 12.47-4.744 18.54 2.771 2.069 5.457 3.326 8.097 4.149 0.607-0.825 1.183-1.76 1.681-2.741l0.053-0.115c-1.056-0.406-1.955-0.852-2.806-1.372l0.075 0.043c0.259-0.192 0.477-0.366 0.689-0.546l-0.020 0.016c5.265 2.463 10.986 2.463 16.189 0 0.188 0.158 0.406 0.332 0.628 0.5l0.041 0.030c-0.777 0.478-1.678 0.926-2.62 1.292l-0.116 0.040c0.501 1.003 1.080 1.959 1.734 2.856 2.643-0.823 5.331-2.080 8.102-4.152 0.665-7.036-1.135-13.136-4.757-18.545zM10.684 20.449c-1.581 0-2.877-1.476-2.877-3.273s1.269-3.275 2.877-3.275c1.608 0 2.905 1.476 2.877 3.275 0.002 1.797-1.268 3.273-2.877 3.273zM21.316 20.449c-1.581 0-2.877-1.476-2.877-3.273s1.268-3.275 2.877-3.275c1.608 0 2.904 1.476 2.877 3.275 0 1.797-1.268 3.273-2.877 3.273z"></path>
</symbol>
</defs>
</svg>
